<svg width="163" height="171" viewBox="0 0 163 171" fill="none" xmlns="http://www.w3.org/2000/svg">
<path d="M3.05176e-05 0H63.45H66.4715L141 74.5286V141L3.05176e-05 0Z" fill="#A3B1FA"/>
<path d="M61.3521 32.9181C60.308 33.8213 59.181 34.2273 57.9712 34.1362C56.7656 34.0492 55.6324 33.4753 54.5717 32.4147C53.4116 31.2546 52.8875 29.9515 52.9994 28.5056C53.1195 27.0596 53.8612 25.655 55.2243 24.2919L55.7774 23.7388C56.6475 22.8687 57.5673 22.2555 58.5368 21.8992C59.5063 21.5429 60.4509 21.4725 61.3707 21.6879C62.2988 21.9034 63.1399 22.3881 63.8939 23.1422C64.938 24.1863 65.4994 25.307 65.5781 26.5044C65.6569 27.7018 65.2405 28.8557 64.329 29.966L62.4645 28.1016C63.0031 27.4718 63.2621 26.8856 63.2414 26.3428C63.229 25.8001 62.9369 25.2428 62.3651 24.671C61.7436 24.0496 61.0538 23.8072 60.2956 23.9439C59.5456 24.0806 58.6984 24.613 57.7537 25.5411L57.0701 26.2247C56.0923 27.2025 55.5247 28.0643 55.3672 28.8101C55.2139 29.56 55.4563 30.254 56.0944 30.8921C56.6703 31.468 57.2296 31.7663 57.7724 31.787C58.3234 31.8077 58.8952 31.5633 59.4876 31.0536L61.3521 32.9181ZM62.9244 37.5233L66.8833 41.4821L65.3855 42.9799L59.5622 37.1566L68.611 28.1078L70.4754 29.9723L62.9244 37.5233ZM68.4432 46.0375L66.5787 44.1731L75.6275 35.1243L77.4919 36.9888L68.4432 46.0375ZM80.2948 51.8608C79.2507 52.764 78.1238 53.1701 76.914 53.0789C75.7083 52.9919 74.5751 52.4181 73.5145 51.3574C72.3544 50.1973 71.8302 48.8943 71.9421 47.4483C72.0623 46.0023 72.8039 44.5978 74.167 43.2347L74.7201 42.6815C75.5902 41.8115 76.51 41.1983 77.4795 40.842C78.449 40.4856 79.3937 40.4152 80.3135 40.6307C81.2415 40.8461 82.0826 41.3309 82.8367 42.0849C83.8807 43.129 84.4422 44.2497 84.5209 45.4471C84.5996 46.6445 84.1832 47.7984 83.2717 48.9088L81.4073 47.0443C81.9459 46.4146 82.2048 45.8283 82.1841 45.2855C82.1717 44.7428 81.8796 44.1855 81.3078 43.6138C80.6863 42.9923 79.9965 42.7499 79.2383 42.8866C78.4884 43.0234 77.6411 43.5558 76.6964 44.4838L76.0128 45.1675C75.035 46.1453 74.4674 47.007 74.3099 47.7528C74.1566 48.5027 74.399 49.1967 75.0371 49.8348C75.613 50.4107 76.1723 50.709 76.7151 50.7297C77.2661 50.7504 77.8379 50.506 78.4304 49.9964L80.2948 51.8608ZM84.9683 55.3038L82.9547 55.3784L80.3694 57.9637L78.5049 56.0993L87.5537 47.0505L89.4181 48.915L85.3164 53.0168L87.2616 52.7122L92.5442 52.041L94.8375 54.3343L87.6034 55.1422L85.8819 63.4763L83.6632 61.2576L84.9683 55.3038ZM93.5572 67.4227L90.2882 64.1537L87.8023 65.3967L85.8198 63.4141L98.2369 57.7338L99.9647 59.4615L94.303 71.8973L92.3205 69.9148L93.5572 67.4227ZM92.3018 63.1469L94.564 65.4091L96.8138 60.8847L92.3018 63.1469ZM95.1482 72.7426L104.197 63.6938L107.366 66.8633C108.464 67.9613 109.086 69.0054 109.231 69.9956C109.38 70.9817 109.049 71.8808 108.237 72.6928C107.793 73.1362 107.288 73.4138 106.72 73.5256C106.157 73.6333 105.593 73.5629 105.03 73.3143C105.378 73.8944 105.508 74.4931 105.421 75.1104C105.338 75.7319 105.042 76.2974 104.533 76.807C103.662 77.6771 102.726 78.0583 101.723 77.9506C100.721 77.8428 99.7016 77.2794 98.6658 76.2601L95.1482 72.7426ZM100.953 70.6668L98.5104 73.1092L100.108 74.7064C100.547 75.1456 100.992 75.3838 101.444 75.4211C101.904 75.4584 102.318 75.2927 102.687 74.924C103.515 74.0953 103.507 73.246 102.662 72.3759L100.953 70.6668ZM102.27 69.3493L103.65 70.729C104.607 71.6529 105.452 71.7482 106.186 71.0148C106.596 70.6047 106.77 70.1903 106.708 69.7719C106.654 69.3534 106.37 68.8873 105.856 68.3735L104.551 67.0684L102.27 69.3493ZM106.639 81.2382L110.598 85.197L109.1 86.6948L103.277 80.8715L112.326 71.8228L114.19 73.6872L106.639 81.2382ZM119.541 89.2926L115.962 85.7129L113.538 88.1366L117.739 92.3378L116.241 93.8356L110.176 87.77L119.224 78.7212L125.278 84.7744L123.767 86.2846L119.579 82.0958L117.422 84.2524L121.002 87.8321L119.541 89.2926Z" fill="#133D58"/>
</svg>
